<svg xmlns="http://www.w3.org/2000/svg" xmlns:xlink="http://www.w3.org/1999/xlink" viewBox="0 0 201.75 49"><defs><linearGradient id="a" x1="35.55" x2="35.55" y1="48.97" y2="24.51" gradientUnits="userSpaceOnUse"><stop offset="0" stop-color="#4366c2"/><stop offset=".15" stop-color="#3458b8"/><stop offset=".4" stop-color="#2348ac"/><stop offset=".67" stop-color="#193fa5"/><stop offset="1" stop-color="#163ca3"/></linearGradient><linearGradient xlink:href="#a" id="c" x1="28.73" x2="28.73" y1="22.86" y2="0"/><linearGradient id="b" x1="2.68" x2="19.28" y1="8.02" y2="8.02" gradientUnits="userSpaceOnUse"><stop offset="0" stop-color="#58c66b"/><stop offset="1" stop-color="#5491f6"/></linearGradient><linearGradient xlink:href="#b" id="d" x1="0" x2="16.02" y1="32.68" y2="32.68"/><linearGradient xlink:href="#b" id="e" x1="14.03" x2="52" y1="20.12" y2="20.12"/><linearGradient xlink:href="#b" id="f" x1="33.83" x2="48.69" y1="43.42" y2="43.42"/></defs><path fill="url(#a)" d="M22.36 39.82c1.43 5.28 6.54 9.31 9.12 9.15.09 0 9.79-1.82 15.1-10.71 4.13-6.92 2.73-13.6-2.89-13.75-2 .15-24 5.25-21.33 15.31"/><path fill="url(#c)" d="M43.16 5.9a24.63 24.63 0 0 0-26-3.76 14.3 14.3 0 0 0-1.57.77c-.34.18-.69.37-1 .57h.09A11.17 11.17 0 0 0 12.05 6C5 15.33 28.7 22.15 41.39 22.17c5.84 4.2 7.48-11.82 1.77-16.27Z"/><path fill="url(#b)" d="M18.6 6.09C15.34 11 4.48 14.46 2.69 13.92l.22-.45A26.58 26.58 0 0 1 5 10a26.57 26.57 0 0 1 5.65-5.6A23.91 23.91 0 0 1 12.72 3a7.6 7.6 0 0 1 3.59-1c4.84.09 2.31 4 2.29 4"/><path fill="url(#d)" d="M15.92 40.79c.24 1.54 0 7.63-.32 8.15-.27 0-.83.05-2.47-.87a24 24 0 0 1-2.48-1.62 26 26 0 0 1-3-2.6 25.13 25.13 0 0 1-2.6-3 25.44 25.44 0 0 1-3.69-7.15 25.27 25.27 0 0 1-1-4 26.42 26.42 0 0 1 0-8.45 25.81 25.81 0 0 1 1-4q.12-.39.27-.78c1.87 2.5 4 4.76 5.89 7.28s4.17 6.32 4.66 7.16c3 5.19 3.54 8.4 3.77 9.94"/><path fill="url(#e)" d="M52 25.43A26.06 26.06 0 0 1 50.19 35c-3.06 3.29-23.71-4.82-23.91-4.91-2.83-1.24-11.42-5-12.2-10.94C13 10.62 30.23 4.68 37.82 4.45c.91 0 3.68 0 5.29 1.36A26 26 0 0 1 52 25.43"/><path fill="url(#f)" d="M38 48.53c-2.25 1.06-4.73.29-4.08-1.91 1.23-4.21 12-8.54 14.41-8.77.29 0 .42.17.29.4A26.34 26.34 0 0 1 38 48.53"/><path fill="#0e3ca5" d="M146.42 14.48a14.23 14.23 0 0 0-1.58-.07 10.84 10.84 0 0 0-2.27.23 11.59 11.59 0 0 0-6.39 3.83v-3.32H127v29.63h9.15V32.4a31 31 0 0 1 .24-4 7.83 7.83 0 0 1 1.07-3.14 5.49 5.49 0 0 1 2.35-2 9.82 9.82 0 0 1 4.14-.73 11.63 11.63 0 0 1 2 .16 14 14 0 0 1 1.92.45v-8.42a8.06 8.06 0 0 0-1.45-.24ZM170.89 14.48a14.31 14.31 0 0 0-1.59-.07 10.75 10.75 0 0 0-2.26.23 11.59 11.59 0 0 0-6.39 3.83v-3.32h-9.15v29.63h9.15V32.4a31 31 0 0 1 .24-4 7.68 7.68 0 0 1 1.11-3.16 5.52 5.52 0 0 1 2.34-2 9.87 9.87 0 0 1 4.15-.73 11.51 11.51 0 0 1 2 .16 14 14 0 0 1 1.92.45v-8.4a7.81 7.81 0 0 0-1.52-.24ZM74.47 13.93H62.15V5.51h34.14v8.42H84v30.85h-9.53ZM122 39.66a14.73 14.73 0 0 1-5.55 4.34 16.75 16.75 0 0 1-7 1.52 18.5 18.5 0 0 1-6.44-1.1 15.29 15.29 0 0 1-5.24-3.14 14.7 14.7 0 0 1-3.51-4.9A15.61 15.61 0 0 1 93 30a15.6 15.6 0 0 1 1.28-6.4 14.74 14.74 0 0 1 3.51-4.91 15.45 15.45 0 0 1 5.24-3.14 18.74 18.74 0 0 1 6.44-1.1 14.68 14.68 0 0 1 5.76 1.1 12 12 0 0 1 4.39 3.14 14.27 14.27 0 0 1 2.77 4.91 19.81 19.81 0 0 1 1 6.4v2.87h-21.21a7.22 7.22 0 0 0 2.38 4.13 7.49 7.49 0 0 0 8.32.54 10.08 10.08 0 0 0 2.71-2.54Zm-7.75-13a5.29 5.29 0 0 0-1.52-4 5.42 5.42 0 0 0-4.09-1.66 6.78 6.78 0 0 0-2.68.49 6.62 6.62 0 0 0-2 1.25 5.32 5.32 0 0 0-1.28 1.77 5.69 5.69 0 0 0-.52 2.1ZM173.31 36.28v-.11c0-6.58 5.14-9.62 12.46-9.62a22.49 22.49 0 0 1 7.56 1.24v-.51c0-3.54-2.25-5.51-6.63-5.51a23.11 23.11 0 0 0-8.54 1.63L176 16.87a27.9 27.9 0 0 1 12-2.42c4.79 0 8.25 1.24 10.44 3.38s3.34 5.57 3.34 9.62V45h-8.48v-3.31a12 12 0 0 1-9.34 3.82c-5.86 0-10.65-3.26-10.65-9.23Zm20.14-2v-.5a1.5 1.5 0 0 0-1-1.42 14.58 14.58 0 0 0-4.56-.72c-3.75 0-6.06 1.46-6.06 4.16v.2c0 2.3 2 3.65 4.79 3.65 4.06-.05 6.83-2.24 6.83-5.34Z"/></svg>